# xmcd CD database file
#
# Track frame offsets:
#	150
#	19794
#	41739
#	63096
#	85484
#	104633
#	125370
#	142206
#	162943
#	180841
#	195824
#	213043
#	239190
#	265694
#	282932
#	300467
#	314893
#
# Disc length: 4568 seconds
#
# Revision: 0
# Processed by: cddbd v1.4PL0 Copyright (c) Steve Scherf et al.
# Submitted via: CDex 1.40Release
#
DISCID=f211d611
DTITLE=ABBA - ABBA the definitive collection cd2
DYEAR=1900
DGENRE=Blues
TTITLE0=voulez vouz
TTITLE1=angeleyes
TTITLE2=gimme! gimme! gimme!
TTITLE3=i have a dream
TTITLE4=the winner takes it all
TTITLE5=super trouper
TTITLE6=on and on and on
TTITLE7=lay oll your love on me
TTITLE8=one of us
TTITLE9=when all is said and done
TTITLE10=head over heels
TTITLE11=the visitors
TTITLE12=yhe day before you came
TTITLE13=under attack
TTITLE14=thank you for the music
TTITLE15=ring ring (remix)
TTITLE16=voulez vous (remix)
EXTD=ID3G: 0
EXTT0=
EXTT1=
EXTT2=
EXTT3=
EXTT4=
EXTT5=
EXTT6=
EXTT7=
EXTT8=
EXTT9=
EXTT10=
EXTT11=
EXTT12=
EXTT13=
EXTT14=
EXTT15=
EXTT16=
PLAYORDER=
